<svg xmlns="http://www.w3.org/2000/svg" version="1.1" xmlns:xlink="http://www.w3.org/1999/xlink" viewBox="0 0 20.771713374612013 20.771853444163643"><g transform="matrix(1,0,0,1,5.442417204012463,6.152078214201076)"><rect width="20.771853444163643" height="20.771853444163643" x="-5.442487238788277" y="-6.152078214201075" fill="#bd2949"></rect><g><path d=" M -0.6597228681110698 -1.3861221261066439 L -1.1471360591706488 -1.9023859938924095 L -0.7930226738021027 -2.2367102531121485 L -0.6763181069286823 -2.1130977777268245 L -0.8886407117081803 -1.9126405216854203 L -0.8076340123489826 -1.8268389211238425 L -0.6345765468095288 -1.9902253147466307 L -0.5261099493624676 -1.8753384258590942 L -0.6991674149019214 -1.7119520322363058 L -0.5179320875220216 -1.519989129284979 L -0.6597228681110698 -1.3861221261066439 M -0.22757417456242507 -1.7832994269091662 L -0.6839639022036514 -2.327182150024699 L -0.534587661347977 -2.452528624517712 L -0.0781979337067506 -1.908645901402179 L -0.22757417456242507 -1.7832994269091662 M -0.014827265756534258 -2.401663456345782 L 0.19010574886955836 -2.119168395298227 L 0.03226466891462086 -2.0046642753782042 L -0.3846477677172581 -2.57936769470131 L -0.2616126694959735 -2.6686221881774306 L 0.1810575616747215 -2.543766005169606 L -0.030921860331064865 -2.835974363445157 L 0.1269192196238726 -2.95047848336518 L 0.5438316562557516 -2.375775064042074 L 0.41836823372746795 -2.2847589687210297 L -0.014827265756534258 -2.401663456345782 M 0.4464033244478975 -3.148888818133768 L 0.6339446225182097 -3.260029546573447 L 1.1903402672707881 -2.76444919335072 L 1.0200045928766512 -2.6635048620155994 L 0.9121475420961985 -2.7611616927902194 L 0.7495543983563406 -2.66480574015215 L 0.7842875485130478 -2.5238142216831596 L 0.6130915929351022 -2.4223600704928114 L 0.4464033244478975 -3.148888818133768 M 0.819202244218502 -2.8571938311732956 L 0.6375495658315791 -3.040145476246132 L 0.7082259715071704 -2.7914270698488988 L 0.819202244218502 -2.8571938311732956 M 1.2912621463765972 -3.2016985167681766 L 1.4406581171486883 -2.886291091495618 L 1.2644276073259122 -2.8028176980842776 L 0.9604988415718014 -3.444477503080027 L 1.0978682646131448 -3.5095439430724564 L 1.5099687277976837 -3.3052911383350705 L 1.3554359328156638 -3.6315435180582614 L 1.53166644263844 -3.7150169114696014 L 1.8355952083925509 -3.0733571064738525 L 1.6955145467385493 -3.007006460428941 L 1.2912621463765972 -3.2016985167681766 M 1.8114505419046165 -3.454396488449136 Q 1.7892708051368895 -3.5154952550235468 1.790973670261353 -3.582604123665239 Q 1.7926765353858167 -3.649712992306931 1.8194530808295586 -3.713689680358902 Q 1.8462296262733007 -3.777666368410873 1.8992709304634092 -3.8293685932161208 Q 1.9523122346535178 -3.881070818021368 2.032210621712363 -3.9100750891791654 Q 2.1280886861829766 -3.9448802145685216 2.2140293796027244 -3.9308642517213643 Q 2.2999700730224726 -3.916848288874207 2.35863524128392 -3.863675005800317 L 2.254748100942256 -3.713194236026796 Q 2.2305854124447517 -3.74165762452101 2.2010725696807536 -3.751157209353387 Q 2.1715597269167555 -3.7606567941857643 2.1422110673301606 -3.7579816903615773 Q 2.1128624077435663 -3.7553065865373902 2.08748292008958 -3.746093465110796 Q 2.0480037170722682 -3.7317619428916498 2.024964536705314 -3.705844841047135 Q 2.0019253563383597 -3.67992773920262 1.9928088477926307 -3.6478943305183162 Q 1.9836923392469017 -3.6158609218340123 1.9860230012604108 -3.5815998941994125 Q 1.9883536632739198 -3.547338866564813 1.999614145017535 -3.516319492765497 Q 2.012239533639164 -3.481540194869294 2.034181033368722 -3.4533343339602944 Q 2.056122533098279 -3.425128473051295 2.0849046426737776 -3.407384737018993 Q 2.1136867522492757 -3.389641000986691 2.14747457428059 -3.385948700568222 Q 2.1812623963119044 -3.382256400149753 2.2169816752323293 -3.3952230154908856 Q 2.2423611628863154 -3.40443613691748 2.2657802044487436 -3.4219803237694624 Q 2.2891992460111714 -3.4395245106214443 2.3043355018977043 -3.465232364630237 Q 2.319471757784237 -3.4909402186390297 2.319832275050786 -3.525114332048166 L 2.5017057962548686 -3.4900711831481597 Q 2.4997099841603947 -3.4340264087790575 2.46627630259516 -3.3825270016271833 Q 2.432842621029926 -3.331027594475309 2.3812177185584984 -3.2915419078937695 Q 2.3295928160870707 -3.2520562213122295 2.272253973609547 -3.231241391422517 Q 2.197995472696032 -3.204284480581741 2.12567807394515 -3.2115435327172457 Q 2.0533606751942686 -3.218802584852751 1.9907971737698043 -3.2519433194479745 Q 1.9282336723453402 -3.2850840540431983 1.881443815588097 -3.337780916422629 Q 1.834653958830854 -3.39047777880206 1.8114505419046165 -3.454396488449136 M 2.6469777087854016 -3.3618637537474636 L 2.449645136131301 -4.0438900404620695 L 2.6369622148768617 -4.098087014641717 L 2.8342947875309625 -3.416060727927111 L 2.6469777087854016 -3.3618637537474636 M 2.9821025767804126 -4.186257364349585 L 3.1950099394934997 -4.233102373716197 L 3.5682990249221813 -3.5882525782600627 L 3.3749244477791027 -3.5457052761747905 L 3.303059893198268 -3.6722180652314638 L 3.1184750695616925 -3.631604731422795 L 3.1073252854699933 -3.4868266864204243 L 2.912974069048414 -3.444064498971085 L 2.9821025767804126 -4.186257364349585 M 3.2448489782360417 -3.792519725150438 L 3.129599362673759 -4.023141766839315 L 3.1188625113094903 -3.7647995131857908 L 3.2448489782360417 -3.792519725150438 M 3.651104392630024 -3.598200603766206 L 3.5545341081424504 -4.301602466255913 L 3.747721943614976 -4.328125290868698 L 3.8211697656196093 -3.7931435926370893 L 4.14017737086142 -3.836940256869482 L 4.16329983334436 -3.668520092611383 L 3.651104392630024 -3.598200603766206 M 4.427156498067214 -4.052352294781173 Q 4.425591111646165 -4.11733344254999 4.448578826554171 -4.180405345671017 Q 4.4715665414621775 -4.243477248792043 4.5173246835800365 -4.295594351838182 Q 4.5630828256978955 -4.347711454884321 4.6298287209064055 -4.37982820242847 Q 4.696574616114915 -4.411944949972621 4.781549963197214 -4.413991993753993 Q 4.883520379695972 -4.41644844629164 4.9605218589778906 -4.3757910707197185 Q 5.037523338259809 -4.335133695147796 5.076198407750881 -4.266045063667207 L 4.929794406875151 -4.156487459971346 Q 4.915955276940823 -4.191164231485729 4.8910048082895 -4.209568690567141 Q 4.866054339638177 -4.2279731496485535 4.837381984106345 -4.234784612652649 Q 4.808709628574512 -4.241596075656744 4.78171745950131 -4.240945838220309 Q 4.739729640942999 -4.23993435776363 4.7096358543122046 -4.222704615855515 Q 4.679542067681411 -4.2054748739474 4.660697960787202 -4.178013088947885 Q 4.641853853892993 -4.150551303948369 4.633151343863622 -4.11733208783497 Q 4.624448833834251 -4.084112871721571 4.625243568478783 -4.051122442854326 Q 4.626134634595381 -4.0141331741243835 4.637950261730346 -3.980407946839642 Q 4.64976588886531 -3.9466827195549 4.6713979941468935 -3.9206961456928755 Q 4.693030099428478 -3.894709571830851 4.72388249640178 -3.880448449820232 Q 4.754734893375082 -3.866187327809613 4.792723872070699 -3.8671024767942264 Q 4.8197160411438995 -3.8677527142306625 4.847503215804637 -3.8769245692433447 Q 4.875290390465374 -3.8860964242560265 4.897826145183572 -3.905644819568206 Q 4.92036189990177 -3.925193214880385 4.931587767713342 -3.9574729281981504 L 5.092829524717058 -3.866329657473678 Q 5.073087924574742 -3.8138389990302857 5.024993202373309 -3.7756696697675527 Q 4.976898480171875 -3.7375003405048193 4.915386078226396 -3.716512858357173 Q 4.853873676280916 -3.695525376209527 4.792891368374796 -3.694056321260542 Q 4.7139142810865415 -3.692153774687266 4.647674667992379 -3.722067210750943 Q 4.581435054898217 -3.7519806468146193 4.532684480957849 -3.8033214837817426 Q 4.483933907017481 -3.854662320748866 4.456364020054897 -3.9195171689321002 Q 4.428794133092312 -3.984372017115334 4.427156498067214 -4.052352294781173 M 5.387924511314297 -4.400723780983515 L 5.605480043726969 -4.386810107254461 L 5.785704089495938 -3.6638334179160945 L 5.588107780240391 -3.6764706078167957 L 5.554067013059628 -3.817931648989781 L 5.3654523542247885 -3.829994421167723 L 5.314666422987766 -3.6939584362652407 L 5.116072152574363 -3.7066594503573596 L 5.387924511314297 -4.400723780983515 M 5.5314273620503815 -3.9496451494450477 L 5.484511856959855 -4.203156362968436 L 5.402690372686919 -3.957878470137929 L 5.5314273620503815 -3.9496451494450477 M 5.868068326424936 -3.650751209182321 L 5.970845442840308 -4.353272998411197 L 6.163791568051056 -4.325045480522468 L 6.085623056974576 -3.790733133785013 L 6.404231530399502 -3.7441215401431123 L 6.379622925060611 -3.575912097651691 L 5.868068326424936 -3.650751209182321 M 6.505157271190727 -3.920679545406912 Q 6.519860506360497 -3.983994747969507 6.557863193451177 -4.039332761792627 Q 6.595865880541858 -4.094670775615747 6.653184026912631 -4.1337172875805654 Q 6.710502173283404 -4.172763799545383 6.783151786293452 -4.18720449653307 Q 6.8558013993035 -4.201645193520757 6.938598202654586 -4.1824178859910575 Q 7.037954366675889 -4.159345116955419 7.102370795907304 -4.100755240312145 Q 7.1667872251387195 -4.042165363668871 7.186993933337675 -3.9656102270432836 L 7.017878423955794 -3.8960620819457557 Q 7.0131325100731505 -3.9330955303595685 6.993565417849182 -3.957145039749548 Q 6.973998325625214 -3.9811945491395275 6.947933571636588 -3.9949469525481107 Q 6.921868817647963 -4.0086993559566935 6.8955686565834995 -4.0148068536425985 Q 6.854657294927669 -4.02430740559845 6.821215494028279 -4.015134295296837 Q 6.787773693128889 -4.005961184995225 6.762671634674206 -3.9840719944816927 Q 6.737569576219523 -3.9621828039681612 6.720851096451106 -3.932187097038118 Q 6.70413261668269 -3.9021913901080745 6.696667897288807 -3.8700467488070647 Q 6.688298363422938 -3.834005787348357 6.691322320844728 -3.7983988262099615 Q 6.694346278266519 -3.762791865071566 6.708807563217527 -3.73222846804889 Q 6.723268848168536 -3.701665071026214 6.749585235101038 -3.680154660085954 Q 6.7759016220335395 -3.6586442491456936 6.812916663531672 -3.650048511661828 Q 6.839216824596134 -3.643941013975924 6.868413796452991 -3.645886993007131 Q 6.897610768309848 -3.647832972038339 6.924312477958545 -3.6611378095734866 Q 6.951014187607242 -3.674442647108634 6.969941663856224 -3.702898764954262 L 7.103331046415062 -3.5743947859474927 Q 7.07111277745133 -3.5284928998753426 7.015013321653659 -3.5035359156984613 Q 6.958913865855987 -3.47857893152158 6.894109932860735 -3.4736089950685822 Q 6.829305999865483 -3.468639058615585 6.769887117460586 -3.482437479313369 Q 6.692934794346047 -3.5003075651350892 6.636257965730628 -3.545807423355731 Q 6.57958113711521 -3.591307281576372 6.545188025187358 -3.653191155500992 Q 6.510794913259507 -3.7150750294256127 6.500285169213237 -3.784758566075828 Q 6.489775425166968 -3.8544421027260434 6.505157271190727 -3.920679545406912 M 7.4491396851219704 -3.289260776080133 Q 7.368497962508147 -3.3161292068842405 7.319476444661932 -3.3619755893811534 Q 7.270454926815717 -3.4078219718780662 7.249417830213 -3.4664793718078957 Q 7.228380733610282 -3.525136771737725 7.231375961245718 -3.5910706675077457 Q 7.234371188881153 -3.657004563277766 7.2564981318963 -3.723415393665621 L 7.371874334760995 -4.069700437830864 L 7.556875933698591 -4.008061096574384 L 7.441499730833895 -3.66177605240914 Q 7.430436259326322 -3.6285706372152124 7.426962168415326 -3.595998706164964 Q 7.42348807750433 -3.5634267751147153 7.429816490082032 -3.5349671336158073 Q 7.436144902659734 -3.506507492116899 7.45385652895109 -3.485322632095758 Q 7.471568155242447 -3.4641377720746176 7.503824844287976 -3.4533903997529745 Q 7.537030259481904 -3.442326928245401 7.564383125239449 -3.4484970769348346 Q 7.591735990996994 -3.4546672256242688 7.613553049389996 -3.474276304212421 Q 7.6353701077829985 -3.4938853828005736 7.652126364771565 -3.5220319252477923 Q 7.668882621760132 -3.5501784676950114 7.679629994081775 -3.582435156740541 L 7.795006196946471 -3.928720200905784 L 7.980007795884067 -3.8670808596493034 L 7.8646315930193715 -3.5207958154840595 Q 7.8412402532605014 -3.450590080502613 7.802509745467178 -3.396035541130794 Q 7.763779237673856 -3.3414810017589747 7.711606156961665 -3.3082700148871704 Q 7.659433076249473 -3.275059028015366 7.593658515844235 -3.2690417858316265 Q 7.527883955438998 -3.2630245436478873 7.4491396851219704 -3.289260776080133 M 7.881506718052269 -3.14123439383279 L 8.163458248752743 -3.792850334656569 L 8.342423190246599 -3.7154129424219318 L 8.127981180981449 -3.2198177198235642 L 8.423502776678994 -3.0919467439284194 L 8.35599325524367 -2.9359260257030075 L 7.881506718052269 -3.14123439383279 M 8.915191246678084 -3.4454931979796997 L 9.107924453266037 -3.3436211651231496 L 8.975945376939094 -2.610301641714774 L 8.80089411590967 -2.7028276165110903 L 8.827833036477461 -2.8458111629723604 L 8.660738650949375 -2.9341314116415713 L 8.55865146175784 -2.8308686119362956 L 8.382716103450491 -2.9238618896356234 L 8.915191246678084 -3.4454931979796997 M 8.861175398253264 -2.9752301990961527 L 8.922302995496826 -3.2256946014674854 L 8.747126849400761 -3.035512273584662 L 8.861175398253264 -2.9752301990961527 M 9.745651876136131 -2.7562262077552684 L 9.573450954982372 -2.8656009889152623 L 9.283929475441212 -2.4097750211553097 L 9.119325653750117 -2.514324444322951 L 9.408847133291278 -2.9701504120829036 L 9.235802089975 -3.080061344130937 L 9.32694774094166 -3.22356211175907 L 9.836797527102794 -2.899726975383402 L 9.745651876136131 -2.7562262077552684 M 9.77562094486456 -2.052606008579804 Q 9.711422673445504 -2.1019981329196744 9.677711239849312 -2.1664169907556334 Q 9.643999806253118 -2.230835848591592 9.637756306390134 -2.300617785433879 Q 9.631512806527148 -2.370399722276166 9.650633005276973 -2.437069940513151 Q 9.669753204026797 -2.5037401587501362 9.711827976612613 -2.5584275751441465 Q 9.755122307824104 -2.614700134042331 9.815547607652082 -2.6489606527292824 Q 9.87597290748006 -2.6832211714162337 9.9452064685046 -2.693671722973994 Q 10.014440029529139 -2.7041222745317546 10.08482961786523 -2.6865565165385594 Q 10.155219206201323 -2.6689907585453643 10.217832335116205 -2.6208181928311696 Q 10.28203060653526 -2.5714260684912986 10.315742040131454 -2.50700721065534 Q 10.349453473727646 -2.442588352819381 10.354995798308169 -2.37271502000747 Q 10.360538122888691 -2.302841687195558 10.341417924138867 -2.236171468958573 Q 10.322297725389044 -2.169501250721588 10.280832732116066 -2.1156064055796646 Q 10.238148180217411 -2.060126417933567 10.178119166015478 -2.025561009590197 Q 10.118090151813542 -1.9909956012468264 10.048856590789004 -1.9805450496890662 Q 9.979623029764465 -1.970094498131306 9.909324837397996 -1.9869590808420385 Q 9.83902664503153 -2.0038236635527706 9.77562094486456 -2.052606008579804 M 9.867537525900184 -2.436106128698066 Q 9.845585470638019 -2.4075735636229303 9.83308357617882 -2.374924633549633 Q 9.820581681719622 -2.3422757034763357 9.820273954971158 -2.3090769790392693 Q 9.819966228222697 -2.2758782546022025 9.834688072062365 -2.244995131153296 Q 9.849409915902035 -2.2141120077043897 9.882697908489693 -2.1885012765651974 Q 9.915985901077352 -2.1628905454260052 9.950312078897458 -2.1566685267614236 Q 9.984638256717565 -2.1504465080968425 10.016862327236307 -2.1603515209288986 Q 10.049086397755048 -2.1702565337609547 10.077043431629946 -2.1910147672339124 Q 10.105000465504842 -2.2117730007068706 10.12634274145417 -2.2395129945299193 Q 10.148294796716335 -2.268045559605055 10.160491801519115 -2.300298204052309 Q 10.172688806321894 -2.3325508484995625 10.172996533070357 -2.365749572936629 Q 10.173304259818819 -2.3989482973736957 10.157881240696687 -2.4297400248529777 Q 10.142458221574556 -2.460531752332259 10.109962800238986 -2.4855327041586137 Q 10.076674807651326 -2.511143435297806 10.042744915457263 -2.5170605643059685 Q 10.0088150232632 -2.522977693314131 9.976804446431252 -2.514170141390581 Q 9.944793869599305 -2.5053625894670306 9.916836835724409 -2.484604355994073 Q 9.88887980184951 -2.463846122521115 9.867537525900184 -2.436106128698066 M 10.145634873024807 -1.7641783327634188 L 10.62939035035921 -2.283871163336406 L 10.868009875382864 -2.061752451208216 Q 10.906071885509336 -2.026322472586541 10.923969941172983 -1.9809720635094334 Q 10.94186799683663 -1.9356216544323257 10.941102998432354 -1.887833949136492 Q 10.940338000028078 -1.8400462438406584 10.923168117679225 -1.795916377082118 Q 10.90599823533037 -1.751786510323578 10.875337676907767 -1.7188482323295153 Q 10.847402501456061 -1.6888378012682583 10.812727822434114 -1.6691994043192997 Q 10.778053143412166 -1.649561007370341 10.739755632652711 -1.642175164857161 Q 10.701458121893257 -1.6347893223439809 10.662364394348149 -1.6397572662475333 L 10.59432741547726 -1.3465133924732935 L 10.437687604572163 -1.492321381416339 L 10.494725759835932 -1.737057257094806 L 10.436900782913023 -1.7908835707700423 L 10.28836741099908 -1.6313159129321393 L 10.145634873024807 -1.7641783327634188 M 10.55272955917619 -1.9153170654142788 L 10.642760852359961 -1.8315115390591639 Q 10.651544393158376 -1.82333539014647 10.665728083908114 -1.8224282425753127 Q 10.67991177465785 -1.8215210950041556 10.696984365283177 -1.8288543513981455 Q 10.714056955908504 -1.8361876077921353 10.730409253733892 -1.8537546893889687 Q 10.747442897302005 -1.8720537327190034 10.752463427324747 -1.8899225401299846 Q 10.757483957347489 -1.907791347540966 10.754466547366993 -1.922895824923835 Q 10.751449137386496 -1.9380003023067038 10.742665596588079 -1.946176451219398 L 10.656294112070315 -2.0265752488608904 L 10.55272955917619 -1.9153170654142788" fill="#ffffff" fill-rule="nonzero"></path></g><g><path d=" M -2.728322068875062 1.7265169336144905 Q -2.707292136855513 1.7180468710850192 -2.6878938578544456 1.7036956769954412 Q -2.6684955788533777 1.6893444829058635 -2.650728952870791 1.669112157256179 Q -2.6329623268882045 1.6488798316064945 -2.6177990791518724 1.6240136715071423 Q -2.6026358314155402 1.59914751140779 -2.591961408549099 1.568980365429617 Q -2.5609388670935025 1.4813070974305527 -2.5798950010789685 1.428456695499015 Q -2.598851135064435 1.3756062935674778 -2.6563572570853267 1.355258174978323 Q -2.6959516361816784 1.3412479949661185 -2.725415297814122 1.352568005708554 Q -2.754878959446566 1.3638880164509897 -2.783697140565192 1.4003642064523327 Q -2.8125153216838177 1.4368403964536758 -2.8502820432640927 1.495608370224072 Q -2.8907173705609783 1.5619181304890115 -2.929803947722669 1.6064292469183172 Q -2.9688905248843596 1.650940363347623 -3.01424992051482 1.6667129734055486 Q -3.05960931614528 1.6824855834634742 -3.1199436081016256 1.6611367377305908 Q -3.1661370503807027 1.6447915277163518 -3.193737151029197 1.6148710590670647 Q -3.2213372516776917 1.5849505904177779 -3.2326210368657273 1.544892180666138 Q -3.2439048220537625 1.504833770914498 -3.239068081554582 1.4566896545414292 Q -3.2342313410554016 1.4085455381683605 -3.2155511010391287 1.3557530327065581 Q -3.1972044367374317 1.3039032505565737 -3.1695175450654225 1.2601318440273972 Q -3.1418306533934133 1.2163604374982209 -3.105608471721577 1.1814433420443822 Q -3.0693862900497404 1.1465262465905435 -3.023381521267638 1.121435187439816 L -2.9813214425041887 1.1734443190842918 Q -3.006513847317496 1.184684547717306 -3.0318512617105817 1.203829140475395 Q -3.057188676103667 1.222973733233484 -3.0812280131928476 1.2489421808634975 Q -3.105267350282028 1.2749106284935108 -3.1248468644172736 1.3077609348273598 Q -3.1444263785525193 1.3406112411612088 -3.1577694071355715 1.3783201736339248 Q -3.186123342874557 1.4584516551384463 -3.172743766650577 1.5135718596016619 Q -3.1593641904265963 1.5686920640648774 -3.101858068405704 1.5890401826540321 Q -3.060378242685717 1.6037175140953894 -3.027390257772711 1.5899319110480319 Q -2.9944022728597055 1.5761463080006743 -2.962364342259139 1.5365663761812123 Q -2.9303264116585717 1.4969864443617502 -2.8918925386491443 1.4363330239677183 Q -2.8511816394695932 1.3722422860409909 -2.814372088478026 1.3311684871443803 Q -2.7775625374864585 1.29009468824777 -2.7365324025070454 1.2775636059492959 Q -2.695502267527632 1.265032523650822 -2.6417670387540118 1.2840463393816712 Q -2.5795473001740303 1.3060623365437074 -2.547494600210046 1.351878539191011 Q -2.5154419002460613 1.3976947418383145 -2.51230171814919 1.459268999904478 Q -2.5091615360523187 1.5208432579706415 -2.533846138930965 1.590604783045166 Q -2.5495241975160514 1.634912778700607 -2.571989885418662 1.6699241035407573 Q -2.594455573321272 1.7049354283809073 -2.6229329550868767 1.7314550197762513 Q -2.6514103368524817 1.7579746111715955 -2.686871137708854 1.7772497662325721 L -2.728322068875062 1.7265169336144905 M -3.344030391559035 1.771490166130725 L -2.6625052703636314 1.9705467138240635 L -2.682130563798186 2.037739331406709 L -3.3636556849935895 1.8386827837133706 L -3.344030391559035 1.771490166130725 M -3.5670232472825587 2.6896354060000265 L -3.0018690993668318 2.810816217573678 L -3.3870087945912832 2.4653926874509944 L -3.377783957724085 2.422370572384745 L -2.8846717400767434 2.264239801163831 L -3.4498258879924704 2.14305898959018 L -3.435150011158291 2.0746147156211476 L -2.740929518043817 2.223470037796394 L -2.7560247056446867 2.293869862450256 L -3.2892980632449373 2.4628211159932696 L -2.872593098784739 2.837512952832858 L -2.8874786310022635 2.906935002144306 L -3.5816991241167377 2.7580796799690592 L -3.5670232472825587 2.6896354060000265 M -3.618358958918631 3.0189629461297884 L -2.913023648413822 3.1002162522476597 L -2.946669383623194 3.3922846765975385 Q -2.951933682329422 3.4379824572781317 -2.9752148417450974 3.474055128599534 Q -2.9984960011607726 3.5101277999209364 -3.0339868323758528 3.534224498857984 Q -3.0694776635909324 3.5583211977950318 -3.1105492095949128 3.5696956476209767 Q -3.1516207555988927 3.581070097446922 -3.1923513862055084 3.5763780051218053 Q -3.249970327063648 3.569740411100909 -3.298213720281946 3.5385142199981723 Q -3.3464571135002448 3.5072880288954353 -3.3729825752674727 3.4579281273757267 Q -3.3995080370347006 3.408568225856018 -3.392412677908915 3.346975564938697 L -3.3660911843777734 3.1184866615357305 L -3.6263698482541957 3.088503047165474 L -3.618358958918631 3.0189629461297884 M -3.304498523460452 3.1255820206615166 L -3.330476693162926 3.3510906340200965 Q -3.335283226764265 3.3928146946415074 -3.3159820159868616 3.4262431744532824 Q -3.296680805209458 3.4596716542650574 -3.2618693963578043 3.480794291736808 Q -3.2270579875061505 3.5019169292085586 -3.1843404968699436 3.5068379040861197 Q -3.1406295762189416 3.5118733202399035 -3.1015838401470606 3.4962390471642206 Q -3.0625381040751796 3.4806047740885373 -3.03746001727985 3.450778786046464 Q -3.01238193048452 3.420952798004391 -3.0079187207118485 3.382209027427366 L -2.982627198666708 3.162660994157559 L -3.304498523460452 3.1255820206615166 M -3.687313513874846 3.709313808858889 L -2.977791593619452 3.735364618387558 L -2.980359983291293 3.8053174837648505 L -3.62792365135537 3.7815415336598117 L -3.642967076576151 4.191265459441095 L -3.704925328767467 4.1889906000174655 L -3.687313513874846 3.709313808858889 M -3.699828734813433 4.347015491675327 L -2.9899400958624396 4.334440902683762 L -2.9887003476520038 4.404429923425409 L -3.6985889866029966 4.417004512416974 L -3.699828734813433 4.347015491675327 M -3.6927393487673292 4.650168338946407 L -2.9846044938442455 4.598738510606588 L -2.9508491417226184 5.063514344964556 L -3.0126862698990005 5.0680054003970465 L -3.041371075564589 4.673045678496285 L -3.301685437726455 4.691951573139514 L -3.2774916874933573 5.025074166863894 L -3.3353393235293276 5.029275476784612 L -3.3595330737624254 4.696152883060232 L -3.687668802311291 4.7199844514036124 L -3.6927393487673292 4.650168338946407 M -2.9330968159048023 5.206006920426792 L -3.2760152198393477 5.492633800260111 L -2.863261675394172 5.666744430458111 L -2.8518722533366447 5.741886170291546 L -3.334047345856799 5.536829641126585 L -3.5950660210676757 5.576392896694839 L -3.6055562782259245 5.507183399479834 L -3.342560188808905 5.467320422278487 L -2.9446360987788767 5.129876473490286 L -2.9330968159048023 5.206006920426792 M -2.779304665299521 6.0597027709715 L -3.0891242482087766 6.381820491759933 L -2.659926223635499 6.510152310504919 L -2.6404567782138986 6.58361618390522 L -3.1420223706806607 6.432047861180893 L -3.3972126677553875 6.499678566329608 L -3.415145051696335 6.432014472408279 L -3.1580214947952845 6.363871413432679 L -2.799030287634563 5.985272267658038 L -2.779304665299521 6.0597027709715 M -3.191579430602361 7.166248237546924 Q -3.2170509534128993 7.09570604077285 -3.209550913255841 7.02814311160572 Q -3.2020508730987824 6.960580182438592 -3.1685551913627674 6.901704981334564 Q -3.1350595096267524 6.842829780230538 -3.0825441077004205 6.798350767645771 Q -3.030028705774089 6.753871755061004 -2.966070447365595 6.73077757437945 Q -2.899290501086138 6.706664532785473 -2.8301337042569212 6.708273088759768 Q -2.760976907427705 6.709881644734063 -2.698025771094768 6.735526418751239 Q -2.635074634761831 6.761171192768415 -2.5866111988114575 6.808526713839183 Q -2.5381477628610836 6.855882234909952 -2.514034721267107 6.922662181189409 Q -2.4885631984565686 6.993204377963483 -2.4970038012372813 7.061106927434753 Q -2.5054444040179944 7.129009476906022 -2.539580177217907 7.187584206850293 Q -2.573715950417819 7.246158936794562 -2.625761071032324 7.290468139227259 Q -2.677806191646828 7.334777341659955 -2.740823887431668 7.35753190203737 Q -2.807603833711125 7.381644943631346 -2.8767606305403417 7.380036387657051 Q -2.9459174273695585 7.378427831682756 -3.0086987535504246 7.3532533389774075 Q -3.071480079731291 7.328078846272058 -3.119473234369838 7.2805535150492195 Q -3.1674663890083847 7.233028183826381 -3.191579430602361 7.166248237546924 M -2.9422970260757593 6.796616958035252 Q -2.9968496582477098 6.816314935675401 -3.0407169728345464 6.852355311796352 Q -3.084584287421383 6.888395687917301 -3.1117309256581196 6.935409622367033 Q -3.138877563894856 6.982423556816766 -3.145449763423572 7.0363615415154435 Q -3.152021962952288 7.090299526214121 -3.1323239853121385 7.144852158386072 Q -3.1116071467595674 7.202226478428985 -3.071151215105567 7.239183447920637 Q -3.030695283451567 7.276140417412289 -2.9790044714534107 7.294155965002391 Q -2.9273136594552542 7.312171512592493 -2.871350674927046 7.311101763698824 Q -2.815387690398837 7.310032014805155 -2.7636567460978494 7.2913528980774265 Q -2.709104113925899 7.2716549204372765 -2.6657070806508893 7.2357843544683975 Q -2.62231004737588 7.199913788499518 -2.5948629379793866 7.152259762585888 Q -2.567415828582893 7.104605736672258 -2.5611441002139337 7.051307843437478 Q -2.554872371844975 6.9980099502026984 -2.5745703494851244 6.943457318030747 Q -2.594947567733555 6.887023560611488 -2.6349332180757283 6.849896780967766 Q -2.674918868417901 6.812770001324044 -2.7266096804160576 6.794754453733942 Q -2.778300492414214 6.776738906143839 -2.834433287094493 6.777338373725682 Q -2.8905660817747716 6.777937841307524 -2.9422970260757593 6.796616958035252 M -2.8685482505663904 7.941071467196617 Q -2.9045915627515724 7.865197363269641 -2.9023807173817064 7.799935489539641 Q -2.900169872011841 7.7346736158096405 -2.869144043035459 7.682293772965964 Q -2.838118214059077 7.629913930122286 -2.7869602222441228 7.588451780232766 Q -2.735802230429169 7.546989630343244 -2.6743803367739982 7.51781171095524 L -2.3510121319423636 7.364198547118393 L -2.3214051255045356 7.426523703915552 L -2.6447733303361702 7.580136867752398 Q -2.6944528031454995 7.603736655492696 -2.737391248597882 7.636865795266207 Q -2.7803296940502644 7.669994935039717 -2.807110482718339 7.711501432823991 Q -2.8338912713864133 7.753007930608264 -2.8371413881728764 7.803264141576406 Q -2.8403915049593396 7.853520352544548 -2.812071759670982 7.9131357199157435 Q -2.782893840282978 7.974557613570914 -2.7407662564451387 8.003811103618869 Q -2.6986386726073 8.033064593666825 -2.64975990087331 8.038076147694923 Q -2.600881129139321 8.043087701723021 -2.5487398566369013 8.030496526169149 Q -2.4965985841344818 8.017905350615276 -2.4478223744671403 7.994734649924802 L -2.1244541696355057 7.841121486087955 L -2.0944180761478544 7.904349906027101 L -2.417786280979489 8.057963069863948 Q -2.481917964060623 8.088428250401423 -2.547495461087008 8.101866698368152 Q -2.613072958113393 8.115305146334881 -2.672565442339533 8.10426457023567 Q -2.7320579265656733 8.093223994136459 -2.7827105195232646 8.054181519488038 Q -2.8333631124808556 8.015139044839618 -2.8685482505663904 7.941071467196617 M -2.6166854080358837 8.426810920152858 L -2.0056320551836606 8.065267285209499 L -1.8528671390104103 8.323458842752691 Q -1.8294431851971789 8.363048214909314 -1.826445094459636 8.405427590222425 Q -1.8234470037220931 8.447806965535536 -1.8369050887528136 8.488884696087574 Q -1.850363173783534 8.529962426639614 -1.8764655415244365 8.563416371075489 Q -1.902567909265339 8.596870315511365 -1.9378540887962419 8.617748187388376 Q -1.9817466535785848 8.643718223137828 -2.030405106761325 8.649850509323509 Q -2.079063559944065 8.655982795509189 -2.1238205359706965 8.641215835871147 Q -2.1685775119973276 8.626448876233106 -2.2016262838364873 8.590230390898636 L -2.3488375883454515 8.87950678437859 L -2.389065682937741 8.811516340892215 L -2.248617526019795 8.534375013735199 L -2.3555529673410702 8.353640923454964 L -2.5810402609287917 8.487055616912937 L -2.6166854080358837 8.426810920152858 M -2.3021933787821434 8.322069507445827 L -2.184055176941497 8.521737645279229 Q -2.1626680886772416 8.557884463335276 -2.127087694594361 8.572852280708123 Q -2.0915073005114806 8.58782009808097 -2.050576677235431 8.583355338486761 Q -2.0096460539593806 8.578890578892553 -1.9734992359033336 8.557503490628298 Q -1.9364917793221426 8.535607185976799 -1.9150081927056488 8.500238336602079 Q -1.893524606089155 8.464869487227359 -1.8907097718588508 8.425441366447187 Q -1.887894937628547 8.386013245667014 -1.9082635931183136 8.351587704661254 L -2.0233464966354955 8.157083397978715 L -2.3021933787821434 8.322069507445827 M -2.0682265112279223 9.288713089597358 L -1.502479978881966 8.859724906614977 L -1.2209187207555012 9.231045870098379 L -1.2703219390730354 9.268506810020783 L -1.509588587609688 8.952963673670082 L -1.7175602002044692 9.110662146569238 L -1.5157544915902217 9.376802064602407 L -1.561970405500173 9.411846169691108 L -1.7637761141144206 9.14570625165794 L -2.0259319016381103 9.344490916730058 L -2.0682265112279223 9.288713089597358 M -1.6703193845864897 9.795171756825766 L -1.1289135145386386 9.335846508360444 L -1.083627926661776 9.389224551886288 L -1.6250337967096269 9.848549800351611 L -1.6703193845864897 9.795171756825766 M -1.0033457959899823 9.679100424810668 L -1.4204980285341757 10.083507416445823 L -1.469221762466122 10.033248111320015 L -0.9594488104757994 9.539050238581705 L -0.9190777166464725 9.580693662828802 L -1.0197669826777653 10.327340615347914 L -0.5954348494013137 9.915973090293912 L -0.5467111154693676 9.966232395419718 L -1.0557660773864643 10.459734214816145 L -1.1010095446089858 10.413064860056467 L -1.0033457959899823 9.679100424810668 M -0.23533532014755387 10.240271240694467 L -0.19049970583866527 10.27862182986262 L -0.42782872428387886 11.009921998742563 L -0.4840632235865528 10.961821259785895 L -0.4096741680117636 10.733316843174988 L -0.6520904555462633 10.525963657672593 L -0.8655459080452327 10.635516246863629 L -0.9225403330141589 10.58676549792106 L -0.23533532014755387 10.240271240694467 M -0.38608242944725035 10.681120771756692 L -0.26659829467011154 10.321435434918286 L -0.6049410213279273 10.493917895817226 L -0.38608242944725035 10.681120771756692 M 0.11119234677794909 10.688095088841711 L -0.22368105396845064 11.162880098580372 L -0.28088406718997616 11.12253390571936 L 0.12834160325743144 10.54233191447246 L 0.1757383856409811 10.575761617128727 L 0.2153334997482923 11.328126041419793 L 0.5559706423319795 10.845169172649484 L 0.6131736555535049 10.885515365510496 L 0.20452435928982604 11.464900170854234 L 0.1514072755841238 11.427435848911866 L 0.11119234677794909 10.688095088841711 M 0.5643071954235505 11.267970409033476 Q 0.5966238451180141 11.211573297826204 0.6472196237036693 11.168531838867295 Q 0.6978154022893244 11.125490379908388 0.7607289906151328 11.102185221595887 Q 0.8236425789409412 11.078880063283387 0.8934683608138524 11.083739094651532 Q 0.9632941426867636 11.088598126019678 1.0327059718649436 11.128372464105171 Q 1.1151325190140324 11.175604490581694 1.1520714535491345 11.246906770456965 Q 1.1890103880842366 11.318209050332236 1.182966932382839 11.393118840367887 L 1.1183422061365054 11.395274010334836 Q 1.1217537288730062 11.343059438493077 1.105058482324441 11.301797849300673 Q 1.0883632357758757 11.260536260108271 1.0600572958319734 11.230485906301832 Q 1.031751355888071 11.20043555249539 0.9979130891637082 11.181045562678714 Q 0.9423836258211642 11.149226092210318 0.887190810184778 11.146989330683498 Q 0.8319979945483915 11.144752569156678 0.7818016739721101 11.164972099334285 Q 0.7316053533958287 11.185191629511893 0.6907534303268601 11.222291095566906 Q 0.6499015072578915 11.25939056162192 0.6230538290501832 11.30624354631719 Q 0.5937202547121316 11.357434770336098 0.5842255337989684 11.414231339552744 Q 0.574730812885805 11.471027908769388 0.5853331981341361 11.524933747294043 Q 0.5959355833824672 11.578839585818695 0.6258356137830563 11.624210150968842 Q 0.6557356441836455 11.669580716118992 0.7051915724730988 11.697919932004906 Q 0.7398974870621888 11.717807101047653 0.7832992065456946 11.726541558436356 Q 0.8267009260292006 11.735276015825058 0.8727882706477368 11.728261269499475 Q 0.9188756152662728 11.72124652317389 0.9608341126894313 11.692272664369948 L 0.9962423120615516 11.747138495423748 Q 0.9508035600559124 11.782185889280782 0.8924961269139181 11.79141861587653 Q 0.8341886937719237 11.80065134247228 0.7757201841195294 11.789046025629219 Q 0.7172516744671349 11.777440708786155 0.6703986897718635 11.750593030578449 Q 0.6070603956467742 11.714298947075434 0.5697950215195751 11.656640106546337 Q 0.532529647392376 11.59898126601724 0.5200212267806187 11.531305277559003 Q 0.5075128061688614 11.463629289100767 0.5192544967229054 11.394866052535484 Q 0.5309961872769494 11.3261028159702 0.5643071954235505 11.267970409033476 M 1.0796348836496648 11.962159308814028 L 1.3944827327820157 11.325786122785004 L 1.4572237511229056 11.356827460023405 L 1.1423759019905546 11.99320064605243 L 1.0796348836496648 11.962159308814028 M 1.8339525956923675 11.529087172094595 L 1.888314342505332 11.552017511896768 L 1.8841816992897589 12.320852943741615 L 1.8159991693887527 12.29209285653211 L 1.8175119614106143 12.051789482730786 L 1.523589974404925 11.927810187868186 L 1.3534636287089536 12.096990643300055 L 1.2843597132687445 12.067841906263395 L 1.8339525956923675 11.529087172094595 M 1.8241455332769214 11.994894880840144 L 1.8288034905024984 11.615911631296733 L 1.5587864979865187 11.882963730619364 L 1.8241455332769214 11.994894880840144 M 2.0500518329194293 12.37734946179922 L 2.27312108721397 11.703301905770362 L 2.3395764800618855 11.725294649151513 L 2.1359865127620794 12.340481714372219 L 2.525225242299871 12.469296354176109 L 2.5057459553051364 12.528156844984261 L 2.0500518329194293 12.37734946179922 M 2.931665236172189 12.63948318394286 L 3.079155425780657 11.9449713813295 L 3.3667420032008373 12.006044783787091 Q 3.4117385425250832 12.015600486212428 3.4454517690012145 12.042183720789302 Q 3.4791649954773463 12.068766955366174 3.4998028818307247 12.106374503104162 Q 3.5204407681841037 12.14398205084215 3.5278862982577364 12.18594410610548 Q 3.535331828331369 12.227906161368807 3.526814789213134 12.268011772505634 Q 3.5147662948507516 12.324746539479683 3.4791243290317704 12.36982591694387 Q 3.443482363212789 12.414905294408056 3.391838378723091 12.436651532382195 Q 3.340194394233393 12.458397770356331 3.2795468847094096 12.445518345348269 L 3.05456418808818 12.397739833221582 L 3.0001382307960416 12.654024470242286 L 2.931665236172189 12.63948318394286 M 3.067443613096244 12.337092323697599 L 3.2894917528050223 12.384247637840025 Q 3.3305755495793337 12.392972409619679 3.365677155553994 12.376913852461588 Q 3.4007787615286547 12.360855295303498 3.4250940258384297 12.32819388196075 Q 3.449409290148205 12.295532468618003 3.4583417945892814 12.253470486206208 Q 3.4674820316917776 12.210430318156929 3.45560442741466 12.170082796341628 Q 3.4437268231375415 12.129735274526327 3.416402042139863 12.101952971824268 Q 3.3890772611421838 12.074170669122209 3.350928021280323 12.066069095326814 L 3.1347489953964462 12.02016017715291 L 3.067443613096244 12.337092323697599 M 3.612420824650373 12.773314693968493 L 3.7053504658692837 12.069422598698965 L 3.7747482780789556 12.078584676002238 L 3.689933619614372 12.721010137600341 L 4.096406519699592 12.774673733233797 L 4.088291536945264 12.836140366905221 L 3.612420824650373 12.773314693968493 M 4.52023460589242 12.152882998573391 L 4.579161269627574 12.15582379796202 L 4.8384053075249245 12.879645273751926 L 4.764497288602868 12.87595681350178 L 4.683677024206961 12.649647103451647 L 4.365073537232149 12.633746849130077 L 4.263121268347835 12.85093509666972 L 4.188214492413318 12.847196792362139 L 4.52023460589242 12.152882998573391 M 4.670438335166489 12.593917962847385 L 4.545111346544147 12.236226551260728 L 4.382796315577943 12.57956287430628 L 4.670438335166489 12.593917962847385 M 5.068235327743873 12.295441168330603 L 5.093470732551226 12.875892866875976 L 5.023536792967446 12.87893327709373 L 4.99269834647309 12.169603318458247 L 5.050643610699651 12.16708412142068 L 5.541917020627529 12.738284993879603 L 5.516247271503354 12.147842732536548 L 5.586181211087133 12.144802322318794 L 5.616976223149807 12.853133224674508 L 5.552037564964869 12.85595646273385 L 5.068235327743873 12.295441168330603 M 5.867818601554766 12.24340328911662 L 5.95050965321662 12.818488665365274 L 5.881222258487866 12.828451442673932 L 5.780171231500058 12.125679296139431 L 5.837580787132454 12.117424423512258 L 6.383093502994228 12.637074187134942 L 6.298979197431137 12.052090611639324 L 6.368266592159891 12.042127834330666 L 6.469175293757575 12.74391016094047 L 6.4048369986523035 12.75316131129851 L 5.867818601554766 12.24340328911662 M 6.7053978800937415 12.69308294307751 L 6.557991676486428 11.998553310060977 L 6.626466429037354 11.984020304071525 L 6.773872632644667 12.678549937088057 L 6.7053978800937415 12.69308294307751 M 6.9197231785319895 12.050906185128099 L 7.077749591645985 12.610002467317782 L 7.010388593791807 12.629041794198987 L 6.817275421139591 11.945808815963746 L 6.873088819361625 11.93003337369075 L 7.48253891241477 12.372967436591212 L 7.321792595460602 11.804248154708077 L 7.389153593314781 11.785208827826871 L 7.581994775582979 12.467479506092767 L 7.519445277575528 12.485158881053884 L 6.9197231785319895 12.050906185128099 M 8.09816548785648 12.283943929695267 Q 8.032003529828609 12.309704273441383 7.964094094279922 12.303414713563399 Q 7.896184658731235 12.297125153685412 7.835384292730498 12.264995486799862 Q 7.774583926729762 12.232865819914311 7.728532800371532 12.182116004533972 Q 7.682481674013302 12.131366189153635 7.657809795495894 12.067999806817081 Q 7.631686630006875 12.000905990225437 7.631115162402064 11.931911980160963 Q 7.630543694797251 11.86291797009649 7.653404384458105 11.800360885220114 Q 7.676265074118957 11.737803800343737 7.72165475740114 11.689010597420141 Q 7.767044440683322 11.640217394496545 7.833206398711194 11.61445705075043 Q 7.931051547907344 11.576360767745609 8.008155548061183 11.59248445095624 Q 8.08525954821502 11.608608134166872 8.141977439643608 11.660570435808495 L 8.104718659944384 11.713709718221082 Q 8.049089233744507 11.664542992270777 7.98472582157946 11.656336216139293 Q 7.9203624094144125 11.648129440007809 7.855132309950314 11.673526962011021 Q 7.800152654687715 11.694933444842302 7.764959916481081 11.735463941724518 Q 7.7297671782744475 11.775994438606734 7.713322500308099 11.827468437543896 Q 7.69687782234175 11.87894243648106 7.699799849849587 11.934680320861824 Q 7.7027218773574235 11.99041820524259 7.723402716702897 12.043534143377641 Q 7.74517202127708 12.099445657204011 7.78322015579785 12.142043655507798 Q 7.82126829031862 12.184641653811584 7.870804159508692 12.209889379720744 Q 7.920340028698764 12.235137105629905 7.9740614799999685 12.23943892734777 Q 8.027782931301173 12.243740749065633 8.079967010872453 12.223422731463062 Q 8.140537817517687 12.199839318174364 8.182793907572163 12.14851025376337 Q 8.22504999762664 12.097181189352376 8.249766622989194 12.014585254641961 L 8.27661543196402 12.083542788361152 Q 8.226761969657133 12.233874529174647 8.09816548785648 12.283943929695267 M 8.201782717525775 11.921663003181518 L 8.054549064449665 11.9789888385602 L 8.034956690332901 11.928668476116465 L 8.23716999867161 11.849936157906505 L 8.363794786944773 12.175154796663229 L 8.308815131682174 12.196561279494508 L 8.201782717525775 11.921663003181518 M 8.704458111482499 11.224661033969483 L 8.761924412294748 11.192201454937155 L 8.972931139527653 11.362437059504646 L 8.936935419313876 11.093347282429612 L 8.995272421653585 11.060395891593764 L 9.036324408715346 11.385203118050136 L 9.312611405379638 11.597811903085528 L 9.227032073522277 10.923745008809561 L 9.293205389609112 10.886367311742031 L 9.380310610343434 11.65260074909701 L 9.326327115641018 11.683093080915256 L 9.023966645014163 11.450756803501877 L 9.065987358930974 11.830144810167772 L 9.012874565756015 11.8601453301825 L 8.402477727019228 11.389490786743112 L 8.467780341578603 11.352604901479104 L 9.00177096007701 11.77338871694221 L 8.961444077353928 11.427498933152867 L 8.704458111482499 11.224661033969483 M 9.781418616679318 11.394712744487064 L 9.381828366817782 10.807833172329712 L 9.439689733086817 10.768436950512378 L 9.839279982948351 11.35531652266973 L 9.781418616679318 11.394712744487064 M 10.037896235543506 10.401373388575147 L 9.837083422778583 10.555266904453626 L 10.231245471352711 11.069601697622284 L 10.175684614065974 11.112180931264552 L 9.781522565491844 10.597846138095894 L 9.580709752726921 10.751739653974374 L 9.5429967172152 10.702528608948978 L 10.000183200031785 10.352162343549752 L 10.037896235543506 10.401373388575147 M 10.507248052207991 9.895099756918968 L 10.98645932203253 10.418985773981033 L 10.935546455585653 10.465557010062573 L 10.711464566033898 10.220584957013834 L 10.400822293944984 10.504736991656271 L 10.624904183496739 10.74970904470501 L 10.573253449420196 10.796955226237007 L 10.09404217959566 10.273069209174942 L 10.145692913672201 10.225823027642946 L 10.358975676016643 10.458989198617047 L 10.669617948105557 10.17483716397461 L 10.456335185761116 9.941670993000509 L 10.507248052207991 9.895099756918968 M 10.951552938537658 9.414203612814424 L 10.990016142275572 9.369464569929985 L 11.72071725330331 9.608631637777606 L 11.672475268954061 9.664745013598766 L 11.444158620407729 9.589781635896248 L 11.236196552740022 9.831675783017198 L 11.345212077828078 10.045406022547724 L 11.296318174771407 10.102277687231332 L 10.951552938537658 9.414203612814424 M 11.392022033654326 9.566058728787192 L 11.032638267773649 9.445670569812055 L 11.20426944591671 9.784445921172251 L 11.392022033654326 9.566058728787192 M 11.493278294472375 9.313286062638886 Q 11.440541544537696 9.275288231038557 11.402986226692926 9.220496825676234 Q 11.365430908848156 9.165705420313913 11.34878420326628 9.100712057627632 Q 11.332137497684407 9.035718694941352 11.344220459496915 8.966774862484508 Q 11.356303421309423 8.897831030027662 11.40306998327906 8.832924260877288 Q 11.458605275618003 8.755847472511217 11.533357618005402 8.726511704111577 Q 11.608109960392799 8.697175935711938 11.681987338958473 8.710964805725979 L 11.677420704493256 8.775463998353958 Q 11.625842591051141 8.766649339327529 11.583070518293983 8.778970045153756 Q 11.540298445536825 8.791290750979982 11.507471440191761 8.816323483952534 Q 11.474644434846697 8.841356216925087 11.451845735886499 8.872998266885896 Q 11.414432486310789 8.924923682206195 11.406476999771069 8.979585919938621 Q 11.39852151323135 9.034248157671048 11.4134197365177 9.086272603299138 Q 11.428317959804051 9.138297048927226 11.460975132640439 9.182780293664257 Q 11.493632305476824 9.227263538401285 11.537444374653328 9.25883096773079 Q 11.585313116901728 9.293321307183398 11.640816826570642 9.308662044225308 Q 11.696320536239554 9.324002781267218 11.751035875622648 9.319054889171298 Q 11.805751215005742 9.31410699707538 11.853981141252136 9.289079527881166 Q 11.90221106749853 9.264052058686952 11.935532242901898 9.217805985667308 Q 11.958915523886716 9.185352601092122 11.97210928431946 9.143092398943487 Q 11.985303044752204 9.100832196794855 11.98311158483384 9.054265604656003 Q 11.980920124915475 9.00769901251715 11.95645953719566 8.962958877868255 L 12.014705333055037 8.933438930972848 Q 12.04484526307551 8.982271139794085 12.047973870675017 9.041222066966508 Q 12.051102478274524 9.10017299413893 12.033488951556683 9.157120458319172 Q 12.01587542483884 9.214067922499414 11.984307995509337 9.257879991675917 Q 11.941633507712043 9.317107418525634 11.880416963857234 9.348184496227251 Q 11.819200420002426 9.379261573928867 11.750591452651882 9.38467540797619 Q 11.681982485301338 9.390089242023512 11.614810099468576 9.371271150155984 Q 11.547637713635815 9.352453058288457 11.493278294472375 9.313286062638886 M 11.912807563741833 8.721424128709584 Q 11.856934924726037 8.688208948303474 11.814708795812964 8.636930745945977 Q 11.772482666899888 8.585652543588479 11.750187464563723 8.522374000994725 Q 11.727892262227558 8.459095458400972 11.733868275698377 8.38935639285664 Q 11.739844289169195 8.319617327312308 11.780724511207485 8.25085100236979 Q 11.829269774877956 8.16919099150055 11.901154151410257 8.133398025563618 Q 11.97303852794256 8.097605059626689 12.047841992959016 8.104846718382229 L 12.048962528408262 8.169497661146483 Q 11.996809248668525 8.165250849119962 11.955285727327782 8.181283539956652 Q 11.91376220598704 8.19731623079334 11.883262647614254 8.225137570427966 Q 11.85276308924147 8.252958910062592 11.832833980997805 8.28648249347207 Q 11.800129803367172 8.341495553426084 11.797009933444148 8.396645498228082 Q 11.793890063521122 8.451795443030079 11.8133035806683 8.5023089595576 Q 11.83271709781548 8.552822476085122 11.869157951375872 8.594262965848037 Q 11.905598804936263 8.63570345561095 11.952016074272462 8.663297605486795 Q 12.00273123891757 8.693446769240035 12.059368563763343 8.703849337880252 Q 12.116005888609116 8.714251906520467 12.170074519590278 8.704513675478697 Q 12.224143150571441 8.694775444436926 12.2699864721958 8.66560542793975 Q 12.31582979382016 8.636435411442575 12.344956952022443 8.587439404921032 Q 12.365397063041588 8.553056242449772 12.374825072746749 8.509799882998248 Q 12.384253082451911 8.466543523546726 12.377976890965218 8.42034980730282 Q 12.371700699478524 8.374156091058916 12.343402123697107 8.331739224027707 L 12.398827656528312 8.29721372170874 Q 12.4331432857422 8.3432076081683 12.441441583356099 8.401655347702956 Q 12.449739880969997 8.460103087237615 12.437200226329301 8.518378356962362 Q 12.424660571688607 8.57665362668711 12.397066421812761 8.623070896023311 Q 12.359763219202822 8.68582016753336 12.301515309452508 8.722157902874452 Q 12.243267399702194 8.758495638215546 12.175399875449868 8.769919260752195 Q 12.107532351197541 8.781342883288842 12.038965856039367 8.768502098977748 Q 11.970399360881192 8.755661314666654 11.912807563741833 8.721424128709584 M 12.758457325605365 7.940163954669436 Q 12.722414097510581 8.016038098542744 12.670429198157048 8.055554806897604 Q 12.618444298803517 8.095071515252465 12.558240560460366 8.10411363278706 Q 12.498036822117214 8.113155750321653 12.43357711683911 8.099694829273679 Q 12.369117411561005 8.086233908225703 12.307695485568328 8.057056056910879 L 11.98432711048923 7.9034432514593 L 12.013934047852802 7.841118061849083 L 12.337302422931899 7.994730867300661 Q 12.386981921896565 8.01833059998177 12.439789383186747 8.03068462896368 Q 12.49259684447693 8.04303865794559 12.541690153681017 8.03757541793696 Q 12.590783462885103 8.032112177928328 12.631793207659705 8.002881186950907 Q 12.672802952434306 7.9736501959734865 12.701122631651636 7.914034797215887 Q 12.730300482966461 7.85261287122321 12.726361589888468 7.801475945999648 Q 12.722422696810474 7.750339020776087 12.69542731911688 7.70928418448144 Q 12.668431941423286 7.668229348186794 12.625730548038689 7.635766430834622 Q 12.583029154654094 7.603303513482448 12.534252919306967 7.580132866850088 L 12.21088454422787 7.426520061398509 L 12.24092056764019 7.363291608170752 L 12.564288942719287 7.516904413622331 Q 12.628420659564583 7.547369523083399 12.680267417924684 7.589712334132611 Q 12.732114176284785 7.632055145181823 12.76114153881368 7.685146219993095 Q 12.790168901342577 7.738237294804367 12.791905641472615 7.802166816417787 Q 12.793642381602654 7.866096338031207 12.758457325605365 7.940163954669436 M 12.975773608009066 7.43816661651756 L 12.309522175704668 7.192791334648463 L 12.413201872269076 6.9112766449423795 Q 12.429099425742285 6.868111059187447 12.460061450988494 6.839018912607089 Q 12.491023476234705 6.809926766026731 12.531370472126483 6.794414837632464 Q 12.57171746801826 6.778902909238196 12.614140353152056 6.778009143651029 Q 12.656563238285852 6.777115378063861 12.695036912545683 6.79128493659433 Q 12.742894409795717 6.80891048501028 12.778382432974944 6.842760894325837 Q 12.813870456154168 6.876611303641393 12.830691543330342 6.920637443901602 Q 12.847512630506516 6.96466358416181 12.840307702046413 7.013161924400264 L 13.157558675985326 6.9445775272328945 L 13.130256355890033 7.018709728855496 L 12.8266851624592 7.0848726377923 L 12.754109374864115 7.281932920586558 L 12.999965537207427 7.372479855586141 L 12.975773608009066 7.43816661651756 M 12.695929672324857 7.260505783296581 L 12.776108637667999 7.042801089923876 Q 12.790623795187017 7.003389033365025 12.779754570954537 6.966350405358791 Q 12.76888534672206 6.9293117773525585 12.739571193314116 6.900399316198663 Q 12.710257039906173 6.871486855044767 12.67084498334732 6.85697169752575 Q 12.63049454448945 6.842110941018185 12.589504410298522 6.847795032767078 Q 12.548514276107596 6.85347912451597 12.516168707251829 6.876200571991799 Q 12.483823138396062 6.898922019467627 12.46999917885414 6.9364573114284385 L 12.391893807442287 7.1485317110070214 L 12.695929672324857 7.260505783296581 M 12.590622376859388 6.352456597902805 L 12.606447074376078 6.295618415766979 L 13.369555465627936 6.201860305712433 L 13.349707539929037 6.2731488731370275 L 13.111166038137704 6.302234125811445 L 13.025605385462715 6.609545652952602 L 13.215063503431095 6.756755100801168 L 13.194947362520047 6.829007027245014 L 12.590622376859388 6.352456597902805 M 13.053889848684525 6.302896033451365 L 12.677396057590265 6.346512833740596 L 12.976643867586105 6.5803434309957325 L 13.053889848684525 6.302896033451365 M 12.849140984882196 5.477987441419432 L 12.800682306732043 5.726303281655088 L 13.43668493310637 5.850418789328209 L 13.423277393697237 5.91912277674519 L 12.78727476732291 5.795007269072069 L 12.738816089172754 6.043323109307725 L 12.677963986032001 6.031447860116778 L 12.788288881741442 5.466112192228486 L 12.849140984882196 5.477987441419432 M 13.502180313754396 4.944210016390215 L 13.563778910818419 4.951253654636471 L 13.509588339149651 5.425165441725811 L 12.804185050190675 5.344504423099345 L 12.85735315824305 4.879534367841878 L 12.918951755307074 4.886578006088134 L 12.873736142048857 5.2820012582087985 L 13.128078736377727 5.311084667741722 L 13.167500389143058 4.966331229335011 L 13.22611840892979 4.973034046375802 L 13.186696756164459 5.317787484782513 L 13.455942236879787 5.3485750003427555 L 13.502180313754396 4.944210016390215 M 12.943711901270564 3.976668778192536 L 12.942184082501008 4.229664165047331 L 13.590172267014474 4.2335773135163945 L 13.589749550358865 4.303576037152109 L 12.941761365845398 4.299662888683045 L 12.940233547075842 4.55265827553784 L 12.878234677569923 4.552283869357158 L 12.881713031764646 3.976294372011854 L 12.943711901270564 3.976668778192536 M 13.56727143688391 3.5362899743709075 Q 13.573280636470635 3.6110488502340914 13.548264568455895 3.6742564157708366 Q 13.523248500441158 3.7374639813075823 13.475439469439316 3.7854488388635334 Q 13.427630438437474 3.8334336964194846 13.365260749062887 3.8625244483402854 Q 13.3028910596883 3.891615200261086 13.23510967890568 3.8970635412197154 Q 13.164337943088533 3.9027522501618135 13.098042243317288 3.8830005365186677 Q 13.031746543546042 3.8632488228755215 12.977763319382218 3.8219412992402506 Q 12.923780095218396 3.7806337756049793 12.889487455048343 3.7221935084070346 Q 12.855194814878288 3.6637532412090894 12.84950610593619 3.592981505391942 Q 12.843496906349467 3.518222629528758 12.869509759375715 3.4549349413308565 Q 12.895522612401962 3.3916472531329545 12.943870097240136 3.34412072675218 Q 12.992217582078311 3.296594200371405 13.054088878947143 3.2675435097811825 Q 13.115960175815976 3.23849281919096 13.182744771587087 3.233124600893487 Q 13.253516507404234 3.227435891951389 13.31981220717548 3.247187605594535 Q 13.386107906946725 3.2669393192376806 13.44005106977997 3.3077484503671974 Q 13.493994232613215 3.348557581496714 13.527788480277513 3.4070379100252373 Q 13.561582727941813 3.46551823855376 13.56727143688391 3.5362899743709075 M 13.229501092624739 3.827288590414077 Q 13.287314623292268 3.822641476067011 13.339120290846035 3.7994159984764755 Q 13.390925958399803 3.7761905208859394 13.42948824323696 3.7379779550451335 Q 13.468050528074118 3.6997653892043276 13.48858581179001 3.649458310947806 Q 13.509121095505902 3.599151232691284 13.504473981158837 3.541337702023755 Q 13.499586498828302 3.480533816321699 13.470282531968738 3.4342328711229926 Q 13.440978565109175 3.3879319259242866 13.395850970310144 3.356948056126365 Q 13.350723375511114 3.3259641863284437 13.296451562000318 3.312268557162564 Q 13.242179748489521 3.2985729279966844 13.187356572856519 3.3029796743602815 Q 13.12954304218899 3.3076267887073474 13.078235767140978 3.3308122049673052 Q 13.026928492092964 3.353997621227263 12.98790787608063 3.3927486409044016 Q 12.948887260068297 3.43149966058154 12.92881030752758 3.4812682850017294 Q 12.908733354986865 3.5310369094219185 12.91338046933393 3.5888504400894474 Q 12.918187829003308 3.648657540779994 12.946993403357117 3.694998547309279 Q 12.975798977710927 3.741339553838563 13.020926572509957 3.7723234236364847 Q 13.066054167308987 3.803307293434406 13.120366042150362 3.81750131510604 Q 13.174677916991737 3.831695336777674 13.229501092624739 3.827288590414077 M 13.46009640970151 2.7069008831586903 Q 13.47329653902028 2.7807301225287917 13.454500948451505 2.846057955610649 Q 13.435705357882732 2.911385788692506 13.39275335604894 2.9637630312551875 Q 13.349801354215149 3.0161402738178693 13.290532249738867 3.051117741630444 Q 13.231263145262586 3.0860952094430183 13.16432463490036 3.0980633266920363 Q 13.094432954963331 3.110559449113805 13.026539765998788 3.0973018138712467 Q 12.958646577034244 3.0840441786286883 12.900926810738321 3.0481425271521316 Q 12.8432070444424 3.0122408756755754 12.803431438444226 2.957385145186609 Q 12.763655832446053 2.9025294146976424 12.751159710024284 2.832637734760613 Q 12.737959580705516 2.7588084953905114 12.757739561132558 2.693304660584404 Q 12.7775195415596 2.6278008257782965 12.82105173918465 2.5758277772826235 Q 12.864583936809701 2.523854728786951 12.923360846356848 2.4889652618365017 Q 12.982137755903995 2.454075794886052 13.048091876407952 2.4422836793612843 Q 13.117983556344981 2.4297875569395155 13.185876745309526 2.443045192182074 Q 13.25376993427407 2.4563028274246324 13.311401699707867 2.491712283972055 Q 13.369033465141664 2.5271217405194775 13.408316876210703 2.582065471870569 Q 13.44760028727974 2.6370092032216608 13.46009640970151 2.7069008831586903 M 13.152004514202842 3.029156036613275 Q 13.209099125982387 3.0189479366067595 13.258419950638972 2.990828437052278 Q 13.307740775295557 2.9627089374977964 13.342432894064919 2.9209512209020296 Q 13.377125012834282 2.879193504306263 13.392706480735711 2.8271385539361327 Q 13.40828794863714 2.775083603566002 13.398079848630625 2.7179889917864566 Q 13.387343743451359 2.6579412104321074 13.353705718439386 2.6146863462744903 Q 13.320067693427413 2.571431482116873 13.272159064964388 2.5449501052872625 Q 13.224250436501364 2.518468728457652 13.168909742976654 2.510077802394092 Q 13.113569049451945 2.5016868763305316 13.059427607247203 2.5113669711642963 Q 13.002332995467658 2.5215750711708114 12.953504365740208 2.549606569863168 Q 12.904675736012758 2.5776380685555242 12.869579423176384 2.61997598094255 Q 12.834483110340013 2.6623138933295762 12.819305836505594 2.7137886479084474 Q 12.804128562671172 2.7652634024873186 12.814336662677688 2.822358014266864 Q 12.824896766132705 2.881421405762945 12.858042596215542 2.9247642707826875 Q 12.891188426298381 2.96810713580243 12.939097054761406 2.9945885126320406 Q 12.987005683224432 3.021069889461651 13.042434377611267 3.0299530104543453 Q 13.097863071998102 3.0388361314470393 13.152004514202842 3.029156036613275 M 13.345317819462435 2.1764355694300157 L 12.659740394834632 2.3610529977533177 L 12.641538676549237 2.293460857297055 L 13.267248776772922 2.1249649508836757 L 13.160638712529888 1.7290681282112823 L 13.220506036934006 1.7129466063013603 L 13.345317819462435 2.1764355694300157 M 12.484034385636752 1.3484798221202219 Q 12.473011725054493 1.3682914589452875 12.466956474636477 1.3916491973284255 Q 12.460901224218462 1.4150069357115636 12.45981338396469 1.4419107756527743 Q 12.45872554371092 1.4688146155939847 12.462576111705436 1.4976836842682526 Q 12.466426679699953 1.5265527529425205 12.477101102566396 1.5567198989206934 Q 12.508123644021993 1.644393166919758 12.556100865175596 1.6735596931163779 Q 12.604078086329201 1.7027262193129977 12.661584208350092 1.6823781007238432 Q 12.701178587446444 1.6683679207116384 12.71696564478126 1.64103627566954 Q 12.732752702116075 1.6137046306274418 12.732216220351987 1.5672211691888096 Q 12.731679738587898 1.5207377077501776 12.724080162985794 1.4512953111133395 Q 12.713811981667082 1.3743111279819584 12.716205230225379 1.3151226801112952 Q 12.718598478783676 1.255934232240632 12.743943331539558 1.2151434435894837 Q 12.76928818429544 1.1743526549383352 12.829622476251787 1.1530038092054518 Q 12.875815918530863 1.1366585991912128 12.916091896333258 1.142561616391006 Q 12.956367874135651 1.148464633590799 12.990334807914875 1.1725114090427764 Q 13.0243017416941 1.1965581844947537 13.050821118365091 1.2370300594325674 Q 13.077340495036085 1.2775019343703813 13.096020735052356 1.3302944398321837 Q 13.114367399354053 1.382144221982168 13.120371654854251 1.4335878699465994 Q 13.126375910354449 1.485031517911031 13.12017554299448 1.534959520520803 Q 13.113975175634511 1.5848875231305755 13.09398931258936 1.6333288823016443 L 13.02857893380557 1.619347382118867 Q 13.041095461464977 1.5947641249028008 13.048753362985519 1.5639443821345413 Q 13.05641126450606 1.5331246393662816 13.05876818014778 1.4978160717281317 Q 13.061125095789501 1.4625075040899818 13.055686431331523 1.424653562037488 Q 13.050247766873547 1.3867996199849946 13.036904738290495 1.3490906875122786 Q 13.00855080255151 1.2689592060077572 12.96348153344278 1.2345206958482724 Q 12.91841226433405 1.2000821856887876 12.860906142313159 1.2204303042779423 Q 12.819426316593171 1.2351076357192996 12.802449965979827 1.2665727516392011 Q 12.785473615366485 1.2980378675591029 12.785458953365243 1.3489593736741592 Q 12.785444291364001 1.3998808797892155 12.793711018395257 1.4712087230496893 Q 12.802369324972998 1.546641035272011 12.799584496868214 1.6017250141808264 Q 12.796799668763429 1.6568089930896417 12.772781895227407 1.6923567996938806 Q 12.748764121691385 1.7279046062981194 12.695028892917765 1.7469184220289689 Q 12.632809154337785 1.7689344191910048 12.57907403292634 1.753473606570145 Q 12.525338911514895 1.738012793949285 12.484171097956326 1.692116594468208 Q 12.443003284397756 1.646220394987131 12.418318681519109 1.5764588699126063 Q 12.402640622934022 1.532150874257165 12.398086677955952 1.4908016108400652 Q 12.393532732977881 1.4494523474229655 12.398993390437722 1.4109240303028745 Q 12.404454047897563 1.3723957131827835 12.419900305879356 1.3351074695346863 L 12.484034385636752 1.3484798221202219" fill="#ffffff" fill-rule="nonzero"></path></g><g clip-path="url(#SvgjsClipPath1004)"><g clip-path="url(#SvgjsClipPath1000c2be2f93-8511-417d-9227-169f49d595e2)"><path d=" M 2.846865438191273 5.470478029553724 L 2.846865438191273 2.5098451964713555 L 0.9074237806705274 2.5098451964713555 L 0.9074237806705274 6.4857510725781715 L 2.333032283787184 5.118453581224852 L 2.846865438191273 5.470478029553724 Z" fill="#de6d2e" transform="matrix(1,0,0,1,0,0)" fill-rule="nonzero"></path></g><g clip-path="url(#SvgjsClipPath1000c2be2f93-8511-417d-9227-169f49d595e2)"><path d=" M 5.373072530500699 1.4657821792807701 L 3.43366568552429 1.4657821792807701 L 3.43366568552429 5.872562916638224 L 5.373072530500699 7.201079233600882 L 5.373072530500699 1.4657821792807701 Z" fill="#de6d2e" transform="matrix(1,0,0,1,0,0)" fill-rule="nonzero"></path></g><g clip-path="url(#SvgjsClipPath1000c2be2f93-8511-417d-9227-169f49d595e2)"><path d=" M 7.899314435354462 4.770780700938021 L 7.899314435354462 4.738196159439225 L 7.899314435354462 -2.1959052287575054e-16 L 5.959907590378052 -2.1959052287575054e-16 L 5.959907590378052 7.588473226975458 L 7.899314435354462 5.657525830272774 L 7.899314435354462 4.770780700938021 Z" fill="#de6d2e" transform="matrix(1,0,0,1,0,0)" fill-rule="nonzero"></path></g><g clip-path="url(#SvgjsClipPath1000c2be2f93-8511-417d-9227-169f49d595e2)"><path d=" M 8.258475455272281 4.830901965006846 L 8.645869448646852 5.205902692597689 L 7.899314435354462 5.948976451456448 L 5.9755036102407235 7.864327828296459 L 5.959907590378052 7.8535359395522 L 5.373072530500699 7.451694740278055 L 3.43366568552429 6.12293473550504 L 2.846865438191273 5.720849848420539 L 2.3548249365417204 5.38375998161195 L 0.9074237806705274 6.771944999567062 L 0 7.642154170342062 L 0.9074237806705274 6.99958422698226 L 2.3796114681091804 5.957018149198138 L 2.846865438191273 6.27715430691494 L 3.43366568552429 6.679239193999441 L 5.373072530500699 8.007755510962099 L 5.959907590378052 8.409805585502264 L 6.029880804494056 8.457777271597713 L 7.899314435354462 6.596837901555369 L 8.975648681144817 5.525342599427765 L 9.369448182677274 5.906539959910473 L 9.889477969973226 4.257852672686676 L 8.258475455272281 4.830901965006846 Z" fill="#e9ae3f" transform="matrix(1,0,0,1,0,0)" fill-rule="nonzero"></path></g></g><g><path d=" M -2.237360336358492 4.228888635798858 A 7.182099321345104 7.182099321345104 0 0 1 12.126838306331717 4.228888635798858 A 7.182099321345104 7.182099321345104 0 0 1 -2.237360336358492 4.228888635798858 Z M -2.1873603363584913 4.228888635798857 A 7.132099321345104 7.132099321345104 0 0 0 12.076838306331716 4.228888635798857 A 7.132099321345104 7.132099321345104 0 0 0 -2.1873603363584913 4.228888635798857 Z" fill="#ffffff" fill-rule="nonzero"></path></g><g transform="matrix(0.7322142801348893,-0.681074333657161,0.681074333657161,0.7322142801348893,-0.3363699182309132,-1.4411700257041944)"><g clip-path="url(#SvgjsClipPath1005)"><path d=" M -2.000330874363086 -0.05637216910090914 C -1.9650549886488002 -0.05637216910090914 -1.946314674363086 -0.07841959767233775 -1.946314674363086 -0.10928599767233771 C -1.946314674363086 -0.1258215691009092 -1.950172974363086 -0.14015239767233773 -1.9650549886488002 -0.1699164262437663 C -1.9860000457916573 -0.21125535481519486 -1.9898583457916574 -0.224483811958052 -1.9937166457916573 -0.26251562624376623 C -1.9667085457916573 -0.2597596976723377 -1.9435587457916572 -0.2536966548151948 -1.9242672457916574 -0.24487768338662336 C -1.874660531505943 -0.22227906910090917 -1.8603297029345145 -0.2162160262437663 -1.8393846457916574 -0.2162160262437663 C -1.8107229886488003 -0.2162160262437663 -1.7875731886488002 -0.2355075262437663 -1.7875731886488002 -0.27023222624376625 C -1.7875731886488002 -0.3044057405294805 -1.8101718029345144 -0.32424842624376626 -1.8393846457916574 -0.32424842624376626 C -1.8559202172202287 -0.32424842624376626 -1.8763140886488003 -0.3181853833866234 -1.9011174457916573 -0.3066104833866234 L -1.9242672457916574 -0.2955867691009091 C -1.9457634886488002 -0.2856654262437663 -1.9689132886488 -0.27960238338662335 -1.9937166457916573 -0.2768464548151948 C -1.9898583457916574 -0.3099175976723377 -1.9810393743630859 -0.3391304405294805 -1.967259731505943 -0.3655873548151948 C -1.9534800886488002 -0.39149308338662336 -1.946314674363086 -0.41354051195805197 -1.946314674363086 -0.4311784548151948 C -1.946314674363086 -0.4598401119580519 -1.9628502457916572 -0.4829899119580519 -2.000330874363086 -0.4829899119580519 C -2.0383626886488004 -0.4829899119580519 -2.0554494457916572 -0.46039129767233766 -2.0554494457916572 -0.4311784548151948 C -2.0554494457916572 -0.41298932624376616 -2.0510399600773717 -0.4014144262437662 -2.0256854172202288 -0.3462958548151948 C -2.016866445791657 -0.3270043548151948 -2.0108034029345143 -0.3038545548151948 -2.008047474363086 -0.2768464548151948 C -2.035055574363086 -0.27960238338662335 -2.0626148600773715 -0.2878701691009091 -2.0918277029345145 -0.3027521833866234 C -2.1204898193988 -0.31708301195805194 -2.144190805113086 -0.32424842624376626 -2.1623799336845146 -0.32424842624376626 C -2.1910415908273717 -0.32424842624376626 -2.2141913908273714 -0.30495692624376625 -2.2141913908273714 -0.27023222624376625 C -2.2141913908273714 -0.2355075262437663 -2.191592776541657 -0.2162160262437663 -2.1623799336845146 -0.2162160262437663 C -2.1425372479702287 -0.2162160262437663 -2.130411162255943 -0.22062551195805202 -2.077496874363086 -0.24487768338662336 C -2.058205374363086 -0.2536966548151948 -2.035055574363086 -0.2597596976723377 -2.008047474363086 -0.26251562624376623 C -2.011905774363086 -0.22944448338662338 -2.0207247457916573 -0.20023164052948056 -2.0345043886488003 -0.17377472624376628 C -2.048284031505943 -0.1478689976723377 -2.0554494457916572 -0.12637275481519483 -2.0554494457916572 -0.10928599767233771 C -2.0554494457916572 -0.07897078338662344 -2.036709131505943 -0.05637216910090914 -2.000330874363086 -0.05637216910090914 Z" fill="#ffffff" transform="matrix(1,0,0,1,0,0)" fill-rule="nonzero"></path></g></g><g transform="matrix(-0.7322142801348893,-0.681074333657161,-0.681074333657161,0.7322142801348893,20.39722380505794,8.019807809461096)"><g clip-path="url(#SvgjsClipPath1006)"><path d=" M 11.89092499540774 -0.05637216910091003 C 11.926200881122027 -0.05637216910091003 11.94494119540774 -0.07841959767233864 11.94494119540774 -0.1092859976723386 C 11.94494119540774 -0.12582156910091008 11.94108289540774 -0.1401523976723386 11.926200881122027 -0.16991642624376718 C 11.90525582397917 -0.21125535481519575 11.901397523979169 -0.2244838119580529 11.89753922397917 -0.2625156262437671 C 11.92454732397917 -0.2597596976723386 11.94769712397917 -0.2536966548151957 11.96698862397917 -0.24487768338662425 C 12.016595338264883 -0.22227906910091005 12.030926166836313 -0.21621602624376718 12.05187122397917 -0.21621602624376718 C 12.080532881122027 -0.21621602624376718 12.103682681122025 -0.2355075262437672 12.103682681122025 -0.27023222624376714 C 12.103682681122025 -0.3044057405294814 12.081084066836311 -0.32424842624376715 12.05187122397917 -0.32424842624376715 C 12.035335652550598 -0.32424842624376715 12.014941781122026 -0.3181853833866243 11.99013842397917 -0.3066104833866243 L 11.96698862397917 -0.29558676910091 C 11.945492381122026 -0.2856654262437672 11.922342581122026 -0.27960238338662424 11.89753922397917 -0.2768464548151957 C 11.901397523979169 -0.30991759767233856 11.91021649540774 -0.3391304405294814 11.923996138264883 -0.36558735481519566 C 11.937775781122026 -0.39149308338662425 11.94494119540774 -0.41354051195805286 11.94494119540774 -0.4311784548151957 C 11.94494119540774 -0.4598401119580528 11.928405623979168 -0.4829899119580528 11.89092499540774 -0.4829899119580528 C 11.852893181122026 -0.4829899119580528 11.83580642397917 -0.46039129767233855 11.83580642397917 -0.4311784548151957 C 11.83580642397917 -0.41298932624376705 11.840215909693455 -0.4014144262437671 11.865570452550598 -0.3462958548151957 C 11.874389423979169 -0.3270043548151957 11.880452466836312 -0.3038545548151957 11.88320839540774 -0.2768464548151957 C 11.85620029540774 -0.27960238338662424 11.828641009693454 -0.28787016910091 11.799428166836313 -0.3027521833866243 C 11.770766050372027 -0.31708301195805283 11.747065064657741 -0.32424842624376715 11.728875936086313 -0.32424842624376715 C 11.700214278943456 -0.32424842624376715 11.677064478943455 -0.30495692624376713 11.677064478943455 -0.27023222624376714 C 11.677064478943455 -0.2355075262437672 11.69966309322917 -0.21621602624376718 11.728875936086313 -0.21621602624376718 C 11.748718621800597 -0.21621602624376718 11.760844707514883 -0.2206255119580529 11.81375899540774 -0.24487768338662425 C 11.833050495407742 -0.2536966548151957 11.85620029540774 -0.2597596976723386 11.88320839540774 -0.2625156262437671 C 11.879350095407741 -0.22944448338662427 11.87053112397917 -0.20023164052948145 11.856751481122027 -0.17377472624376716 C 11.842971838264884 -0.14786899767233858 11.83580642397917 -0.12637275481519572 11.83580642397917 -0.1092859976723386 C 11.83580642397917 -0.07897078338662433 11.854546738264883 -0.05637216910091003 11.89092499540774 -0.05637216910091003 Z" fill="#ffffff" transform="matrix(1,0,0,1,0,0)" fill-rule="nonzero"></path></g></g></g><defs><clipPath id="SvgjsClipPath1004"><path d=" M 0 0 h 9.889477969973225 v 8.457777271597715 h -9.889477969973225 Z"></path></clipPath><clipPath id="SvgjsClipPath1000c2be2f93-8511-417d-9227-169f49d595e2"><path d=" M 0 0 L 9.889477969973225 0 L 9.889477969973225 8.457777271597715 L 0 8.457777271597715 Z"></path></clipPath><clipPath id="SvgjsClipPath1005"><path d=" M -2.3224139498988 -0.6143558405294804 h 0.6430499999999998 v 0.6430499999999998 h -0.6430499999999998 Z"></path></clipPath><clipPath id="SvgjsClipPath1006"><path d=" M 11.568841919872026 -0.6143558405294813 h 0.6430499999999998 v 0.6430499999999998 h -0.6430499999999998 Z"></path></clipPath></defs></svg>